<?xml version="1.0" standalone="no"?><!DOCTYPE svg PUBLIC "-//W3C//DTD SVG 1.1//EN" "http://www.w3.org/Graphics/SVG/1.1/DTD/svg11.dtd"><svg t="1724248485356" class="icon" viewBox="0 0 1027 1024" version="1.1" xmlns="http://www.w3.org/2000/svg" p-id="8396" xmlns:xlink="http://www.w3.org/1999/xlink" width="200.5859375" height="200"><path d="M639.93728 846.704l-272-704-0.096 0.032A47.904 47.904 0 0 0 323.16928 112a47.92 47.92 0 0 0-44.672 30.736l-0.112-0.032-272 704 0.112 0.048C4.41728 852.112 3.16928 857.904 3.16928 864a47.92 47.92 0 1 0 92.672 17.264l0.112 0.032L158.25728 720h329.808l62.32 161.296 0.112-0.032A47.92 47.92 0 0 0 643.16928 864c0-6.112-1.248-11.888-3.328-17.264l0.096-0.032zM195.36128 624L323.16928 293.184 450.97728 624H195.36128zM979.16928 464h-96v-96a48 48 0 1 0-96 0v96h-96a48 48 0 1 0 0 96h96v96a48 48 0 1 0 96 0v-96h96a48 48 0 1 0 0-96z" p-id="8397"></path></svg>